<?xml version="1.0" encoding="UTF-8" standalone="no"?>
<!DOCTYPE svg PUBLIC "-//W3C//DTD SVG 1.1//EN"
 "http://www.w3.org/Graphics/SVG/1.1/DTD/svg11.dtd">
<!-- Generated by graphviz version 2.43.0 (0)
 -->
<!-- Title: TExpress Pages: 1 -->
<svg width="1471pt" height="688pt"
 viewBox="0.00 0.00 1470.87 688.14" xmlns="http://www.w3.org/2000/svg" xmlns:xlink="http://www.w3.org/1999/xlink">
<g id="graph0" class="graph" transform="scale(1 1) rotate(0) translate(4 684.14)">
<title>TExpress</title>
<polygon fill="white" stroke="transparent" points="-4,4 -4,-684.14 1466.87,-684.14 1466.87,4 -4,4"/>
<g id="clust1" class="cluster">
<title>cluster_dea</title>
<path fill="none" stroke="#4a90d9" d="M126.37,-546C126.37,-546 1256.37,-546 1256.37,-546 1262.37,-546 1268.37,-552 1268.37,-558 1268.37,-558 1268.37,-607 1268.37,-607 1268.37,-613 1262.37,-619 1256.37,-619 1256.37,-619 126.37,-619 126.37,-619 120.37,-619 114.37,-613 114.37,-607 114.37,-607 114.37,-558 114.37,-558 114.37,-552 120.37,-546 126.37,-546"/>
<text text-anchor="middle" x="230.87" y="-605.4" font-family="Helvetica,sans-Serif" font-size="12.00">TE_DEA( ) &#160;— &#160;differential expression</text>
</g>
<g id="clust2" class="cluster">
<title>cluster_annot</title>
<path fill="none" stroke="#d9a441" d="M138.37,-302.88C138.37,-302.88 803.37,-302.88 803.37,-302.88 809.37,-302.88 815.37,-308.88 815.37,-314.88 815.37,-314.88 815.37,-363.88 815.37,-363.88 815.37,-369.88 809.37,-375.88 803.37,-375.88 803.37,-375.88 138.37,-375.88 138.37,-375.88 132.37,-375.88 126.37,-369.88 126.37,-363.88 126.37,-363.88 126.37,-314.88 126.37,-314.88 126.37,-308.88 132.37,-302.88 138.37,-302.88"/>
<text text-anchor="middle" x="266.87" y="-362.27" font-family="Helvetica,sans-Serif" font-size="12.00">annotate_TE_regions( ) &#160;— &#160;genomic context</text>
</g>
<g id="clust3" class="cluster">
<title>cluster_class</title>
<path fill="none" stroke="#3fae6b" d="M103.37,-95.62C103.37,-95.62 643.37,-95.62 643.37,-95.62 649.37,-95.62 655.37,-101.62 655.37,-107.62 655.37,-107.62 655.37,-156.62 655.37,-156.62 655.37,-162.62 649.37,-168.62 643.37,-168.62 643.37,-168.62 103.37,-168.62 103.37,-168.62 97.37,-168.62 91.37,-162.62 91.37,-156.62 91.37,-156.62 91.37,-107.62 91.37,-107.62 91.37,-101.62 97.37,-95.62 103.37,-95.62"/>
<text text-anchor="middle" x="254.37" y="-155.03" font-family="Helvetica,sans-Serif" font-size="12.00">classify_TE_transcription( ) &#160;— &#160;transcriptional origin</text>
</g>
<!-- GENEGTF -->
<g id="node1" class="node">
<title>GENEGTF</title>
<polygon fill="#eef6ff" stroke="#4a90d9" points="108.62,-346.88 22.33,-346.88 0.12,-310.88 86.42,-310.88 108.62,-346.88"/>
<text text-anchor="middle" x="54.37" y="-326.38" font-family="Helvetica,sans-Serif" font-size="10.00">gene GTF</text>
</g>
<!-- IG2 -->
<g id="node19" class="node">
<title>IG2</title>
<path fill="white" stroke="#333333" d="M200.87,-346.88C200.87,-346.88 145.87,-346.88 145.87,-346.88 139.87,-346.88 133.87,-340.88 133.87,-334.88 133.87,-334.88 133.87,-322.88 133.87,-322.88 133.87,-316.88 139.87,-310.88 145.87,-310.88 145.87,-310.88 200.87,-310.88 200.87,-310.88 206.87,-310.88 212.87,-316.88 212.87,-322.88 212.87,-322.88 212.87,-334.88 212.87,-334.88 212.87,-340.88 206.87,-346.88 200.87,-346.88"/>
<text text-anchor="middle" x="173.37" y="-326.38" font-family="Helvetica,sans-Serif" font-size="10.00">importGTF( )</text>
</g>
<!-- GENEGTF&#45;&gt;IG2 -->
<g id="edge20" class="edge">
<title>GENEGTF&#45;&gt;IG2</title>
<path fill="none" stroke="#555555" d="M90.63,-317.43C101.6,-315.49 112.57,-314.92 123.54,-315.73"/>
<polygon fill="#555555" stroke="#555555" points="123.29,-319.23 133.62,-316.86 124.07,-312.27 123.29,-319.23"/>
</g>
<!-- GENEGTF&#45;&gt;IG2 -->
<!-- INPUTS1 -->
<g id="node2" class="node">
<title>INPUTS1</title>
<polygon fill="#eef6ff" stroke="transparent" points="97.87,-628.5 4.87,-628.5 4.87,-515.5 97.87,-515.5 97.87,-628.5"/>
<polygon fill="#eef6ff" stroke="transparent" points="9.37,-588 9.37,-624 94.37,-624 94.37,-588 9.37,-588"/>
<polygon fill="none" stroke="#4a90d9" points="9.37,-588 9.37,-624 94.37,-624 94.37,-588 9.37,-588"/>
<text text-anchor="start" x="18.87" y="-609" font-family="Helvetica,sans-Serif" font-size="10.00">metadata file</text>
<text text-anchor="start" x="27.37" y="-598" font-family="Helvetica,sans-Serif" font-size="10.00">(data.csv)</text>
<polygon fill="#eef6ff" stroke="transparent" points="9.37,-548 9.37,-584 94.37,-584 94.37,-548 9.37,-548"/>
<polygon fill="none" stroke="#4a90d9" points="9.37,-548 9.37,-584 94.37,-584 94.37,-548 9.37,-548"/>
<text text-anchor="start" x="16.37" y="-569" font-family="Helvetica,sans-Serif" font-size="10.00">TElocal counts</text>
<text text-anchor="start" x="23.37" y="-558" font-family="Helvetica,sans-Serif" font-size="10.00">(*.cntTable)</text>
<polygon fill="#eef6ff" stroke="transparent" points="9.37,-519 9.37,-544 94.37,-544 94.37,-519 9.37,-519"/>
<polygon fill="none" stroke="#4a90d9" points="9.37,-519 9.37,-544 94.37,-544 94.37,-519 9.37,-519"/>
<text text-anchor="start" x="34.37" y="-529" font-family="Helvetica,sans-Serif" font-size="10.00">TE GTF</text>
</g>
<!-- RM -->
<g id="node9" class="node">
<title>RM</title>
<path fill="white" stroke="#333333" d="M211.87,-590C211.87,-590 134.87,-590 134.87,-590 128.87,-590 122.87,-584 122.87,-578 122.87,-578 122.87,-566 122.87,-566 122.87,-560 128.87,-554 134.87,-554 134.87,-554 211.87,-554 211.87,-554 217.87,-554 223.87,-560 223.87,-566 223.87,-566 223.87,-578 223.87,-578 223.87,-584 217.87,-590 211.87,-590"/>
<text text-anchor="middle" x="173.37" y="-569.5" font-family="Helvetica,sans-Serif" font-size="10.00">read_metadata( )</text>
</g>
<!-- INPUTS1&#45;&gt;RM -->
<g id="edge17" class="edge">
<title>INPUTS1:m&#45;&gt;RM</title>
<path fill="none" stroke="#555555" d="M95.37,-606C104.07,-603.21 112.88,-599.24 121.28,-594.92"/>
<polygon fill="#555555" stroke="#555555" points="123.04,-597.95 130.22,-590.16 119.75,-591.78 123.04,-597.95"/>
</g>
<!-- INPUTS1&#45;&gt;RM -->
<!-- RC -->
<g id="node10" class="node">
<title>RC</title>
<path fill="white" stroke="#333333" d="M329.87,-590C329.87,-590 260.87,-590 260.87,-590 254.87,-590 248.87,-584 248.87,-578 248.87,-578 248.87,-566 248.87,-566 248.87,-560 254.87,-554 260.87,-554 260.87,-554 329.87,-554 329.87,-554 335.87,-554 341.87,-560 341.87,-566 341.87,-566 341.87,-578 341.87,-578 341.87,-584 335.87,-590 329.87,-590"/>
<text text-anchor="middle" x="295.37" y="-569.5" font-family="Helvetica,sans-Serif" font-size="10.00">readTEcounts( )</text>
</g>
<!-- INPUTS1&#45;&gt;RC -->
<g id="edge18" class="edge">
<title>INPUTS1:c&#45;&gt;RC</title>
<path fill="none" stroke="#555555" d="M95.37,-566C109.56,-566 104.37,-614.89 108.37,-628.5 112.74,-643.35 108.12,-652.24 120.87,-661 158.61,-686.92 182.59,-680.79 223.87,-661 250.5,-648.24 270.35,-620.2 282.29,-598.98"/>
<polygon fill="#555555" stroke="#555555" points="285.42,-600.54 287.07,-590.07 279.26,-597.23 285.42,-600.54"/>
</g>
<!-- IG1 -->
<g id="node11" class="node">
<title>IG1</title>
<path fill="white" stroke="#333333" d="M433.87,-590C433.87,-590 378.87,-590 378.87,-590 372.87,-590 366.87,-584 366.87,-578 366.87,-578 366.87,-566 366.87,-566 366.87,-560 372.87,-554 378.87,-554 378.87,-554 433.87,-554 433.87,-554 439.87,-554 445.87,-560 445.87,-566 445.87,-566 445.87,-578 445.87,-578 445.87,-584 439.87,-590 433.87,-590"/>
<text text-anchor="middle" x="406.37" y="-569.5" font-family="Helvetica,sans-Serif" font-size="10.00">importGTF( )</text>
</g>
<!-- INPUTS1&#45;&gt;IG1 -->
<g id="edge19" class="edge">
<title>INPUTS1:t&#45;&gt;IG1</title>
<path fill="none" stroke="#555555" d="M95.37,-531C117.23,-531 102.97,-607.32 108.37,-628.5 112.2,-643.5 108.12,-652.24 120.87,-661 161.36,-688.8 298.13,-683.32 341.87,-661 367.08,-648.14 384.73,-620.31 395.11,-599.18"/>
<polygon fill="#555555" stroke="#555555" points="398.33,-600.56 399.38,-590.01 391.99,-597.6 398.33,-600.56"/>
</g>
<!-- R1 -->
<g id="node3" class="node">
<title>R1</title>
<polygon fill="#fff7e6" stroke="#d9a441" points="869.37,-450.5 653.37,-450.5 653.37,-414.5 875.37,-414.5 875.37,-444.5 869.37,-450.5"/>
<polyline fill="none" stroke="#d9a441" points="869.37,-450.5 869.37,-444.5 "/>
<polyline fill="none" stroke="#d9a441" points="875.37,-444.5 869.37,-444.5 "/>
<text text-anchor="middle" x="764.37" y="-435.5" font-family="Helvetica,sans-Serif" font-size="10.00">TE_results</text>
<text text-anchor="middle" x="764.37" y="-424.5" font-family="Helvetica,sans-Serif" font-size="10.00">res.TEs | TE.count | gene.count | metadata</text>
</g>
<!-- R1&#45;&gt;IG2 -->
<g id="edge27" class="edge">
<title>R1&#45;&gt;IG2</title>
<path fill="none" stroke="#d9a441" d="M653.13,-427.86C518.49,-422.1 300.58,-408.03 226.37,-375.88 214.96,-370.93 204.22,-362.61 195.43,-354.4"/>
<polygon fill="#d9a441" stroke="#d9a441" points="197.82,-351.84 188.25,-347.3 192.9,-356.81 197.82,-351.84"/>
<text text-anchor="middle" x="402.97" y="-414.55" font-family="Helvetica,sans-Serif" font-size="9.00"> input</text>
</g>
<!-- R2 -->
<g id="node4" class="node">
<title>R2</title>
<polygon fill="#fff7e6" stroke="#d9a441" points="618.37,-243.25 430.37,-243.25 430.37,-207.25 624.37,-207.25 624.37,-237.25 618.37,-243.25"/>
<polyline fill="none" stroke="#d9a441" points="618.37,-243.25 618.37,-237.25 "/>
<polyline fill="none" stroke="#d9a441" points="624.37,-237.25 618.37,-237.25 "/>
<text text-anchor="middle" x="527.37" y="-228.25" font-family="Helvetica,sans-Serif" font-size="10.00">TE_results</text>
<text text-anchor="middle" x="527.37" y="-217.25" font-family="Helvetica,sans-Serif" font-size="10.00">+ annotation, geneId, gene_name ...</text>
</g>
<!-- GEF -->
<g id="node24" class="node">
<title>GEF</title>
<path fill="white" stroke="#333333" d="M234.87,-139.62C234.87,-139.62 111.87,-139.62 111.87,-139.62 105.87,-139.62 99.87,-133.62 99.87,-127.62 99.87,-127.62 99.87,-115.62 99.87,-115.62 99.87,-109.62 105.87,-103.62 111.87,-103.62 111.87,-103.62 234.87,-103.62 234.87,-103.62 240.87,-103.62 246.87,-109.62 246.87,-115.62 246.87,-115.62 246.87,-127.62 246.87,-127.62 246.87,-133.62 240.87,-139.62 234.87,-139.62"/>
<text text-anchor="middle" x="173.37" y="-119.12" font-family="Helvetica,sans-Serif" font-size="10.00">.get_expressed_features( )</text>
</g>
<!-- R2&#45;&gt;GEF -->
<g id="edge29" class="edge">
<title>R2&#45;&gt;GEF</title>
<path fill="none" stroke="#3fae6b" d="M430.33,-211C378.6,-202.23 314.43,-188.59 259.37,-168.62 242.24,-162.41 224.31,-153.29 209.28,-144.8"/>
<polygon fill="#3fae6b" stroke="#3fae6b" points="210.74,-141.6 200.33,-139.63 207.24,-147.66 210.74,-141.6"/>
<text text-anchor="middle" x="298.32" y="-188.14" font-family="Helvetica,sans-Serif" font-size="9.00"> input</text>
</g>
<!-- R3 -->
<g id="node5" class="node">
<title>R3</title>
<polygon fill="#fff7e6" stroke="#d9a441" points="676.87,-36 497.87,-36 497.87,0 682.87,0 682.87,-30 676.87,-36"/>
<polyline fill="none" stroke="#d9a441" points="676.87,-36 676.87,-30 "/>
<polyline fill="none" stroke="#d9a441" points="682.87,-30 676.87,-30 "/>
<text text-anchor="middle" x="590.37" y="-21" font-family="Helvetica,sans-Serif" font-size="10.00">TE_results</text>
<text text-anchor="middle" x="590.37" y="-10" font-family="Helvetica,sans-Serif" font-size="10.00">+ expression_type, TE_expression</text>
</g>
<!-- O1 -->
<g id="node6" class="node">
<title>O1</title>
<path fill="#eafaef" stroke="#3fae6b" d="M1422.87,-588.98C1422.87,-591.06 1392.17,-592.75 1354.37,-592.75 1316.58,-592.75 1285.87,-591.06 1285.87,-588.98 1285.87,-588.98 1285.87,-555.02 1285.87,-555.02 1285.87,-552.94 1316.58,-551.25 1354.37,-551.25 1392.17,-551.25 1422.87,-552.94 1422.87,-555.02 1422.87,-555.02 1422.87,-588.98 1422.87,-588.98"/>
<path fill="none" stroke="#3fae6b" d="M1422.87,-588.98C1422.87,-586.9 1392.17,-585.21 1354.37,-585.21 1316.58,-585.21 1285.87,-586.9 1285.87,-588.98"/>
<text text-anchor="middle" x="1354.37" y="-575" font-family="Helvetica,sans-Serif" font-size="10.00">genes_DEA/ + TEs_DEA/</text>
<text text-anchor="middle" x="1354.37" y="-564" font-family="Helvetica,sans-Serif" font-size="10.00">tables, volcano/MA plots</text>
</g>
<!-- O2 -->
<g id="node7" class="node">
<title>O2</title>
<path fill="#eafaef" stroke="#3fae6b" d="M1462.87,-345.85C1462.87,-347.93 1414.24,-349.63 1354.37,-349.63 1294.51,-349.63 1245.87,-347.93 1245.87,-345.85 1245.87,-345.85 1245.87,-311.9 1245.87,-311.9 1245.87,-309.82 1294.51,-308.12 1354.37,-308.12 1414.24,-308.12 1462.87,-309.82 1462.87,-311.9 1462.87,-311.9 1462.87,-345.85 1462.87,-345.85"/>
<path fill="none" stroke="#3fae6b" d="M1462.87,-345.85C1462.87,-343.77 1414.24,-342.08 1354.37,-342.08 1294.51,-342.08 1245.87,-343.77 1245.87,-345.85"/>
<text text-anchor="middle" x="1354.37" y="-331.88" font-family="Helvetica,sans-Serif" font-size="10.00">TEs_annotated/</text>
<text text-anchor="middle" x="1354.37" y="-320.88" font-family="Helvetica,sans-Serif" font-size="10.00">annotated tables, region &amp; class barplots</text>
</g>
<!-- O1&#45;&gt;O2 -->
<!-- O3 -->
<g id="node8" class="node">
<title>O3</title>
<path fill="#eafaef" stroke="#3fae6b" d="M1440.87,-138.6C1440.87,-140.68 1402.1,-142.38 1354.37,-142.38 1306.65,-142.38 1267.87,-140.68 1267.87,-138.6 1267.87,-138.6 1267.87,-104.65 1267.87,-104.65 1267.87,-102.57 1306.65,-100.87 1354.37,-100.87 1402.1,-100.87 1440.87,-102.57 1440.87,-104.65 1440.87,-104.65 1440.87,-138.6 1440.87,-138.6"/>
<path fill="none" stroke="#3fae6b" d="M1440.87,-138.6C1440.87,-136.52 1402.1,-134.83 1354.37,-134.83 1306.65,-134.83 1267.87,-136.52 1267.87,-138.6"/>
<text text-anchor="middle" x="1354.37" y="-124.62" font-family="Helvetica,sans-Serif" font-size="10.00">classify_TE/</text>
<text text-anchor="middle" x="1354.37" y="-113.62" font-family="Helvetica,sans-Serif" font-size="10.00">classified table, pie &amp; bar charts</text>
</g>
<!-- O2&#45;&gt;O3 -->
<!-- RM&#45;&gt;RC -->
<g id="edge1" class="edge">
<title>RM&#45;&gt;RC</title>
<path fill="none" stroke="#555555" d="M223.89,-572C228.81,-572 233.73,-572 238.65,-572"/>
<polygon fill="#555555" stroke="#555555" points="238.74,-575.5 248.74,-572 238.74,-568.5 238.74,-575.5"/>
</g>
<!-- RM&#45;&gt;IG2 -->
<!-- RC&#45;&gt;IG1 -->
<g id="edge2" class="edge">
<title>RC&#45;&gt;IG1</title>
<path fill="none" stroke="#555555" d="M342.2,-572C346.94,-572 351.67,-572 356.41,-572"/>
<polygon fill="#555555" stroke="#555555" points="356.77,-575.5 366.77,-572 356.77,-568.5 356.77,-575.5"/>
</g>
<!-- TC -->
<g id="node12" class="node">
<title>TC</title>
<path fill="white" stroke="#333333" d="M535.87,-590C535.87,-590 482.87,-590 482.87,-590 476.87,-590 470.87,-584 470.87,-578 470.87,-578 470.87,-566 470.87,-566 470.87,-560 476.87,-554 482.87,-554 482.87,-554 535.87,-554 535.87,-554 541.87,-554 547.87,-560 547.87,-566 547.87,-566 547.87,-578 547.87,-578 547.87,-584 541.87,-590 535.87,-590"/>
<text text-anchor="middle" x="509.37" y="-569.5" font-family="Helvetica,sans-Serif" font-size="10.00">TE_coords( )</text>
</g>
<!-- IG1&#45;&gt;TC -->
<g id="edge3" class="edge">
<title>IG1&#45;&gt;TC</title>
<path fill="none" stroke="#555555" d="M446.21,-572C450.87,-572 455.53,-572 460.19,-572"/>
<polygon fill="#555555" stroke="#555555" points="460.39,-575.5 470.39,-572 460.39,-568.5 460.39,-575.5"/>
</g>
<!-- CD -->
<g id="node13" class="node">
<title>CD</title>
<path fill="white" stroke="#333333" d="M645.87,-590C645.87,-590 584.87,-590 584.87,-590 578.87,-590 572.87,-584 572.87,-578 572.87,-578 572.87,-566 572.87,-566 572.87,-560 578.87,-554 584.87,-554 584.87,-554 645.87,-554 645.87,-554 651.87,-554 657.87,-560 657.87,-566 657.87,-566 657.87,-578 657.87,-578 657.87,-584 651.87,-590 645.87,-590"/>
<text text-anchor="middle" x="615.37" y="-575" font-family="Helvetica,sans-Serif" font-size="10.00">call_deseq2( )</text>
<text text-anchor="middle" x="615.37" y="-564" font-family="Helvetica,sans-Serif" font-size="10.00">[DESeq2]</text>
</g>
<!-- TC&#45;&gt;CD -->
<g id="edge4" class="edge">
<title>TC&#45;&gt;CD</title>
<path fill="none" stroke="#555555" d="M547.88,-572C552.79,-572 557.69,-572 562.6,-572"/>
<polygon fill="#555555" stroke="#555555" points="562.66,-575.5 572.66,-572 562.66,-568.5 562.66,-575.5"/>
</g>
<!-- RD -->
<g id="node14" class="node">
<title>RD</title>
<path fill="white" stroke="#333333" d="M771.87,-590C771.87,-590 694.87,-590 694.87,-590 688.87,-590 682.87,-584 682.87,-578 682.87,-578 682.87,-566 682.87,-566 682.87,-560 688.87,-554 694.87,-554 694.87,-554 771.87,-554 771.87,-554 777.87,-554 783.87,-560 783.87,-566 783.87,-566 783.87,-578 783.87,-578 783.87,-584 777.87,-590 771.87,-590"/>
<text text-anchor="middle" x="733.37" y="-569.5" font-family="Helvetica,sans-Serif" font-size="10.00">results_deseq2( )</text>
</g>
<!-- CD&#45;&gt;RD -->
<g id="edge5" class="edge">
<title>CD&#45;&gt;RD</title>
<path fill="none" stroke="#555555" d="M658.24,-572C662.94,-572 667.63,-572 672.32,-572"/>
<polygon fill="#555555" stroke="#555555" points="672.6,-575.5 682.6,-572 672.6,-568.5 672.6,-575.5"/>
</g>
<!-- NC -->
<g id="node15" class="node">
<title>NC</title>
<path fill="white" stroke="#333333" d="M887.37,-590C887.37,-590 821.37,-590 821.37,-590 815.37,-590 809.37,-584 809.37,-578 809.37,-578 809.37,-566 809.37,-566 809.37,-560 815.37,-554 821.37,-554 821.37,-554 887.37,-554 887.37,-554 893.37,-554 899.37,-560 899.37,-566 899.37,-566 899.37,-578 899.37,-578 899.37,-584 893.37,-590 887.37,-590"/>
<text text-anchor="middle" x="854.37" y="-569.5" font-family="Helvetica,sans-Serif" font-size="10.00">norm_counts( )</text>
</g>
<!-- RD&#45;&gt;NC -->
<g id="edge6" class="edge">
<title>RD&#45;&gt;NC</title>
<path fill="none" stroke="#555555" d="M783.95,-572C788.96,-572 793.97,-572 798.98,-572"/>
<polygon fill="#555555" stroke="#555555" points="799.26,-575.5 809.26,-572 799.26,-568.5 799.26,-575.5"/>
</g>
<!-- ATC -->
<g id="node16" class="node">
<title>ATC</title>
<path fill="white" stroke="#333333" d="M1012.37,-590C1012.37,-590 936.37,-590 936.37,-590 930.37,-590 924.37,-584 924.37,-578 924.37,-578 924.37,-566 924.37,-566 924.37,-560 930.37,-554 936.37,-554 936.37,-554 1012.37,-554 1012.37,-554 1018.37,-554 1024.37,-560 1024.37,-566 1024.37,-566 1024.37,-578 1024.37,-578 1024.37,-584 1018.37,-590 1012.37,-590"/>
<text text-anchor="middle" x="974.37" y="-569.5" font-family="Helvetica,sans-Serif" font-size="10.00">addTEColumns( )</text>
</g>
<!-- NC&#45;&gt;ATC -->
<g id="edge7" class="edge">
<title>NC&#45;&gt;ATC</title>
<path fill="none" stroke="#555555" d="M899.84,-572C904.56,-572 909.27,-572 913.98,-572"/>
<polygon fill="#555555" stroke="#555555" points="914.3,-575.5 924.3,-572 914.3,-568.5 914.3,-575.5"/>
</g>
<!-- SV1 -->
<g id="node17" class="node">
<title>SV1</title>
<path fill="white" stroke="#333333" d="M1131.37,-590C1131.37,-590 1061.37,-590 1061.37,-590 1055.37,-590 1049.37,-584 1049.37,-578 1049.37,-578 1049.37,-566 1049.37,-566 1049.37,-560 1055.37,-554 1061.37,-554 1061.37,-554 1131.37,-554 1131.37,-554 1137.37,-554 1143.37,-560 1143.37,-566 1143.37,-566 1143.37,-578 1143.37,-578 1143.37,-584 1137.37,-590 1131.37,-590"/>
<text text-anchor="middle" x="1096.37" y="-569.5" font-family="Helvetica,sans-Serif" font-size="10.00">.save_deseq2( )</text>
</g>
<!-- ATC&#45;&gt;SV1 -->
<g id="edge8" class="edge">
<title>ATC&#45;&gt;SV1</title>
<path fill="none" stroke="#555555" d="M1024.41,-572C1029.31,-572 1034.21,-572 1039.1,-572"/>
<polygon fill="#555555" stroke="#555555" points="1039.15,-575.5 1049.15,-572 1039.15,-568.5 1039.15,-575.5"/>
</g>
<!-- G1 -->
<g id="node18" class="node">
<title>G1</title>
<path fill="white" stroke="#333333" d="M1248.37,-590C1248.37,-590 1180.37,-590 1180.37,-590 1174.37,-590 1168.37,-584 1168.37,-578 1168.37,-578 1168.37,-566 1168.37,-566 1168.37,-560 1174.37,-554 1180.37,-554 1180.37,-554 1248.37,-554 1248.37,-554 1254.37,-554 1260.37,-560 1260.37,-566 1260.37,-566 1260.37,-578 1260.37,-578 1260.37,-584 1254.37,-590 1248.37,-590"/>
<text text-anchor="middle" x="1214.37" y="-575" font-family="Helvetica,sans-Serif" font-size="10.00">graphTE_DEA( )</text>
<text text-anchor="middle" x="1214.37" y="-564" font-family="Helvetica,sans-Serif" font-size="10.00">volcano + MA</text>
</g>
<!-- SV1&#45;&gt;G1 -->
<g id="edge9" class="edge">
<title>SV1&#45;&gt;G1</title>
<path fill="none" stroke="#555555" d="M1143.39,-572C1148.33,-572 1153.27,-572 1158.21,-572"/>
<polygon fill="#555555" stroke="#555555" points="1158.35,-575.5 1168.35,-572 1158.35,-568.5 1158.35,-575.5"/>
</g>
<!-- G1&#45;&gt;R1 -->
<g id="edge26" class="edge">
<title>G1&#45;&gt;R1</title>
<path fill="none" stroke="#d9a441" d="M1200.98,-553.8C1190.26,-541.24 1174.13,-524.85 1156.37,-515.5 1072.31,-471.22 966.29,-450.85 885.71,-441.48"/>
<polygon fill="#d9a441" stroke="#d9a441" points="885.85,-437.97 875.52,-440.33 885.07,-444.93 885.85,-437.97"/>
<text text-anchor="middle" x="1028.13" y="-474.99" font-family="Helvetica,sans-Serif" font-size="9.00"> output</text>
</g>
<!-- G1&#45;&gt;O1 -->
<g id="edge21" class="edge">
<title>G1&#45;&gt;O1</title>
<path fill="none" stroke="#555555" d="M1260.59,-572C1265.59,-572 1270.59,-572 1275.6,-572"/>
<polygon fill="#555555" stroke="#555555" points="1275.86,-575.5 1285.86,-572 1275.86,-568.5 1275.86,-575.5"/>
</g>
<!-- TXDB -->
<g id="node20" class="node">
<title>TXDB</title>
<path fill="white" stroke="#333333" d="M374.37,-346.88C374.37,-346.88 250.37,-346.88 250.37,-346.88 244.37,-346.88 238.37,-340.88 238.37,-334.88 238.37,-334.88 238.37,-322.88 238.37,-322.88 238.37,-316.88 244.37,-310.88 250.37,-310.88 250.37,-310.88 374.37,-310.88 374.37,-310.88 380.37,-310.88 386.37,-316.88 386.37,-322.88 386.37,-322.88 386.37,-334.88 386.37,-334.88 386.37,-340.88 380.37,-346.88 374.37,-346.88"/>
<text text-anchor="middle" x="312.37" y="-326.38" font-family="Helvetica,sans-Serif" font-size="10.00">makeTxDbFromGRanges( )</text>
</g>
<!-- IG2&#45;&gt;TXDB -->
<g id="edge10" class="edge">
<title>IG2&#45;&gt;TXDB</title>
<path fill="none" stroke="#555555" d="M213.01,-328.88C218,-328.88 223,-328.88 227.99,-328.88"/>
<polygon fill="#555555" stroke="#555555" points="228.24,-332.38 238.24,-328.88 228.24,-325.38 228.24,-332.38"/>
</g>
<!-- IG2&#45;&gt;GEF -->
<!-- TGC -->
<g id="node21" class="node">
<title>TGC</title>
<path fill="white" stroke="#333333" d="M527.37,-346.88C527.37,-346.88 423.37,-346.88 423.37,-346.88 417.37,-346.88 411.37,-340.88 411.37,-334.88 411.37,-334.88 411.37,-322.88 411.37,-322.88 411.37,-316.88 417.37,-310.88 423.37,-310.88 423.37,-310.88 527.37,-310.88 527.37,-310.88 533.37,-310.88 539.37,-316.88 539.37,-322.88 539.37,-322.88 539.37,-334.88 539.37,-334.88 539.37,-340.88 533.37,-346.88 527.37,-346.88"/>
<text text-anchor="middle" x="475.37" y="-331.88" font-family="Helvetica,sans-Serif" font-size="10.00">TE_genomic_context( )</text>
<text text-anchor="middle" x="475.37" y="-320.88" font-family="Helvetica,sans-Serif" font-size="10.00">[ChIPseeker]</text>
</g>
<!-- TXDB&#45;&gt;TGC -->
<g id="edge11" class="edge">
<title>TXDB&#45;&gt;TGC</title>
<path fill="none" stroke="#555555" d="M386.55,-328.88C391.43,-328.88 396.3,-328.88 401.18,-328.88"/>
<polygon fill="#555555" stroke="#555555" points="401.19,-332.38 411.19,-328.88 401.19,-325.38 401.19,-332.38"/>
</g>
<!-- SV2 -->
<g id="node22" class="node">
<title>SV2</title>
<path fill="white" stroke="#333333" d="M646.37,-346.88C646.37,-346.88 576.37,-346.88 576.37,-346.88 570.37,-346.88 564.37,-340.88 564.37,-334.88 564.37,-334.88 564.37,-322.88 564.37,-322.88 564.37,-316.88 570.37,-310.88 576.37,-310.88 576.37,-310.88 646.37,-310.88 646.37,-310.88 652.37,-310.88 658.37,-316.88 658.37,-322.88 658.37,-322.88 658.37,-334.88 658.37,-334.88 658.37,-340.88 652.37,-346.88 646.37,-346.88"/>
<text text-anchor="middle" x="611.37" y="-326.38" font-family="Helvetica,sans-Serif" font-size="10.00">.save_deseq2( )</text>
</g>
<!-- TGC&#45;&gt;SV2 -->
<g id="edge12" class="edge">
<title>TGC&#45;&gt;SV2</title>
<path fill="none" stroke="#555555" d="M539.39,-328.88C544.29,-328.88 549.19,-328.88 554.08,-328.88"/>
<polygon fill="#555555" stroke="#555555" points="554.14,-332.38 564.14,-328.88 554.14,-325.38 554.14,-332.38"/>
</g>
<!-- G2 -->
<g id="node23" class="node">
<title>G2</title>
<path fill="white" stroke="#333333" d="M795.37,-346.88C795.37,-346.88 695.37,-346.88 695.37,-346.88 689.37,-346.88 683.37,-340.88 683.37,-334.88 683.37,-334.88 683.37,-322.88 683.37,-322.88 683.37,-316.88 689.37,-310.88 695.37,-310.88 695.37,-310.88 795.37,-310.88 795.37,-310.88 801.37,-310.88 807.37,-316.88 807.37,-322.88 807.37,-322.88 807.37,-334.88 807.37,-334.88 807.37,-340.88 801.37,-346.88 795.37,-346.88"/>
<text text-anchor="middle" x="745.37" y="-331.88" font-family="Helvetica,sans-Serif" font-size="10.00">graphTEregion( )</text>
<text text-anchor="middle" x="745.37" y="-320.88" font-family="Helvetica,sans-Serif" font-size="10.00">region / class barplots</text>
</g>
<!-- SV2&#45;&gt;G2 -->
<g id="edge13" class="edge">
<title>SV2&#45;&gt;G2</title>
<path fill="none" stroke="#555555" d="M658.48,-328.88C663.39,-328.88 668.29,-328.88 673.2,-328.88"/>
<polygon fill="#555555" stroke="#555555" points="673.26,-332.38 683.26,-328.88 673.26,-325.38 673.26,-332.38"/>
</g>
<!-- G2&#45;&gt;R2 -->
<g id="edge28" class="edge">
<title>G2&#45;&gt;R2</title>
<path fill="none" stroke="#3fae6b" d="M708.89,-310.87C671.55,-293.46 613.45,-266.38 573.08,-247.55"/>
<polygon fill="#3fae6b" stroke="#3fae6b" points="574.52,-244.37 563.98,-243.32 571.57,-250.71 574.52,-244.37"/>
<text text-anchor="middle" x="619.44" y="-279.89" font-family="Helvetica,sans-Serif" font-size="9.00"> output</text>
</g>
<!-- G2&#45;&gt;O2 -->
<g id="edge22" class="edge">
<title>G2&#45;&gt;O2</title>
<path fill="none" stroke="#555555" d="M807.52,-328.88C950.16,-328.88 1092.79,-328.88 1235.43,-328.88"/>
<polygon fill="#555555" stroke="#555555" points="1235.7,-332.38 1245.7,-328.88 1235.7,-325.38 1235.7,-332.38"/>
</g>
<!-- CLS -->
<g id="node25" class="node">
<title>CLS</title>
<path fill="white" stroke="#333333" d="M390.87,-139.62C390.87,-139.62 283.87,-139.62 283.87,-139.62 277.87,-139.62 271.87,-133.62 271.87,-127.62 271.87,-127.62 271.87,-115.62 271.87,-115.62 271.87,-109.62 277.87,-103.62 283.87,-103.62 283.87,-103.62 390.87,-103.62 390.87,-103.62 396.87,-103.62 402.87,-109.62 402.87,-115.62 402.87,-115.62 402.87,-127.62 402.87,-127.62 402.87,-133.62 396.87,-139.62 390.87,-139.62"/>
<text text-anchor="middle" x="337.37" y="-124.62" font-family="Helvetica,sans-Serif" font-size="10.00">rule&#45;based labelling</text>
<text text-anchor="middle" x="337.37" y="-113.62" font-family="Helvetica,sans-Serif" font-size="10.00">self vs gene&#45;dependent</text>
</g>
<!-- GEF&#45;&gt;CLS -->
<g id="edge14" class="edge">
<title>GEF&#45;&gt;CLS</title>
<path fill="none" stroke="#555555" d="M247.05,-121.62C251.94,-121.62 256.82,-121.62 261.71,-121.62"/>
<polygon fill="#555555" stroke="#555555" points="261.75,-125.13 271.75,-121.62 261.75,-118.13 261.75,-125.13"/>
</g>
<!-- SV3 -->
<g id="node26" class="node">
<title>SV3</title>
<path fill="white" stroke="#333333" d="M496.37,-139.62C496.37,-139.62 440.37,-139.62 440.37,-139.62 434.37,-139.62 428.37,-133.62 428.37,-127.62 428.37,-127.62 428.37,-115.62 428.37,-115.62 428.37,-109.62 434.37,-103.62 440.37,-103.62 440.37,-103.62 496.37,-103.62 496.37,-103.62 502.37,-103.62 508.37,-109.62 508.37,-115.62 508.37,-115.62 508.37,-127.62 508.37,-127.62 508.37,-133.62 502.37,-139.62 496.37,-139.62"/>
<text text-anchor="middle" x="468.37" y="-119.12" font-family="Helvetica,sans-Serif" font-size="10.00">write.table( )</text>
</g>
<!-- CLS&#45;&gt;SV3 -->
<g id="edge15" class="edge">
<title>CLS&#45;&gt;SV3</title>
<path fill="none" stroke="#555555" d="M403.13,-121.62C408.12,-121.62 413.12,-121.62 418.11,-121.62"/>
<polygon fill="#555555" stroke="#555555" points="418.36,-125.13 428.36,-121.62 418.36,-118.13 418.36,-125.13"/>
</g>
<!-- G3 -->
<g id="node27" class="node">
<title>G3</title>
<path fill="white" stroke="#333333" d="M635.37,-139.62C635.37,-139.62 545.37,-139.62 545.37,-139.62 539.37,-139.62 533.37,-133.62 533.37,-127.62 533.37,-127.62 533.37,-115.62 533.37,-115.62 533.37,-109.62 539.37,-103.62 545.37,-103.62 545.37,-103.62 635.37,-103.62 635.37,-103.62 641.37,-103.62 647.37,-109.62 647.37,-115.62 647.37,-115.62 647.37,-127.62 647.37,-127.62 647.37,-133.62 641.37,-139.62 635.37,-139.62"/>
<text text-anchor="middle" x="590.37" y="-124.62" font-family="Helvetica,sans-Serif" font-size="10.00">graph_classify_TE( )</text>
<text text-anchor="middle" x="590.37" y="-113.62" font-family="Helvetica,sans-Serif" font-size="10.00">pie + bar charts</text>
</g>
<!-- SV3&#45;&gt;G3 -->
<g id="edge16" class="edge">
<title>SV3&#45;&gt;G3</title>
<path fill="none" stroke="#555555" d="M508.41,-121.62C513.29,-121.62 518.17,-121.62 523.04,-121.62"/>
<polygon fill="#555555" stroke="#555555" points="523.06,-125.13 533.06,-121.62 523.06,-118.13 523.06,-125.13"/>
</g>
<!-- G3&#45;&gt;R3 -->
<g id="edge30" class="edge">
<title>G3&#45;&gt;R3</title>
<path fill="none" stroke="#3fae6b" d="M590.37,-103.39C590.37,-87.76 590.37,-64.48 590.37,-46.32"/>
<polygon fill="#3fae6b" stroke="#3fae6b" points="593.87,-46.32 590.37,-36.32 586.87,-46.32 593.87,-46.32"/>
<text text-anchor="middle" x="573.37" y="-72.46" font-family="Helvetica,sans-Serif" font-size="9.00"> output</text>
</g>
<!-- G3&#45;&gt;O3 -->
<g id="edge23" class="edge">
<title>G3&#45;&gt;O3</title>
<path fill="none" stroke="#555555" d="M647.45,-121.62C850.78,-121.62 1054.11,-121.62 1257.44,-121.62"/>
<polygon fill="#555555" stroke="#555555" points="1257.74,-125.13 1267.74,-121.62 1257.74,-118.13 1257.74,-125.13"/>
</g>
</g>
</svg>
