<?xml version="1.0" encoding="UTF-8" standalone="no"?>
<!DOCTYPE svg PUBLIC "-//W3C//DTD SVG 1.1//EN"
 "http://www.w3.org/Graphics/SVG/1.1/DTD/svg11.dtd">
<!-- Generated by graphviz version 2.43.0 (0)
 -->
<!-- Title: TExpressOverview Pages: 1 -->
<svg width="1189pt" height="258pt"
 viewBox="0.00 0.00 1189.00 258.00" xmlns="http://www.w3.org/2000/svg" xmlns:xlink="http://www.w3.org/1999/xlink">
<g id="graph0" class="graph" transform="scale(1 1) rotate(0) translate(4 254)">
<title>TExpressOverview</title>
<polygon fill="white" stroke="transparent" points="-4,4 -4,-254 1185,-254 1185,4 -4,4"/>
<!-- INPUTS1 -->
<g id="node1" class="node">
<title>INPUTS1</title>
<polygon fill="#eef6ff" stroke="transparent" points="4,-142 4,-168 166,-168 166,-142 4,-142"/>
<polygon fill="none" stroke="#4a90d9" points="4,-142 4,-168 166,-168 166,-142 4,-142"/>
<text text-anchor="start" x="18" y="-152.2" font-family="Helvetica,sans-Serif" font-size="11.00">metadata file (data.csv)</text>
<polygon fill="#eef6ff" stroke="transparent" points="4,-112 4,-138 166,-138 166,-112 4,-112"/>
<polygon fill="none" stroke="#4a90d9" points="4,-112 4,-138 166,-138 166,-112 4,-112"/>
<text text-anchor="start" x="11" y="-122.2" font-family="Helvetica,sans-Serif" font-size="11.00">TElocal counts (*.cntTable)</text>
<polygon fill="#eef6ff" stroke="transparent" points="4,-82 4,-108 166,-108 166,-82 4,-82"/>
<polygon fill="none" stroke="#4a90d9" points="4,-82 4,-108 166,-108 166,-82 4,-82"/>
<text text-anchor="start" x="65.5" y="-92.2" font-family="Helvetica,sans-Serif" font-size="11.00">TE GTF</text>
</g>
<!-- DEA -->
<g id="node3" class="node">
<title>DEA</title>
<path fill="#dbe9fb" stroke="#4a90d9" stroke-width="2" d="M385,-150C385,-150 249,-150 249,-150 243,-150 237,-144 237,-138 237,-138 237,-112 237,-112 237,-106 243,-100 249,-100 249,-100 385,-100 385,-100 391,-100 397,-106 397,-112 397,-112 397,-138 397,-138 397,-144 391,-150 385,-150"/>
<text text-anchor="middle" x="317" y="-128.2" font-family="Helvetica,sans-Serif" font-size="11.00">TE_DEA( )</text>
<text text-anchor="middle" x="317" y="-116.2" font-family="Helvetica,sans-Serif" font-size="11.00">differential expression</text>
</g>
<!-- INPUTS1&#45;&gt;DEA -->
<g id="edge1" class="edge">
<title>INPUTS1&#45;&gt;DEA</title>
<path fill="none" stroke="#555555" d="M170.01,-125C188.42,-125 207.97,-125 226.58,-125"/>
<polygon fill="#555555" stroke="#555555" points="226.81,-128.5 236.81,-125 226.81,-121.5 226.81,-128.5"/>
</g>
<!-- GENEGTF -->
<g id="node2" class="node">
<title>GENEGTF</title>
<polygon fill="#eef6ff" stroke="#4a90d9" points="655.41,-250 560.11,-250 535.59,-214 630.89,-214 655.41,-250"/>
<text text-anchor="middle" x="595.5" y="-229.2" font-family="Helvetica,sans-Serif" font-size="11.00">gene GTF</text>
</g>
<!-- ANN -->
<g id="node4" class="node">
<title>ANN</title>
<path fill="#fdf0d5" stroke="#d9a441" stroke-width="2" d="M665,-150C665,-150 526,-150 526,-150 520,-150 514,-144 514,-138 514,-138 514,-112 514,-112 514,-106 520,-100 526,-100 526,-100 665,-100 665,-100 671,-100 677,-106 677,-112 677,-112 677,-138 677,-138 677,-144 671,-150 665,-150"/>
<text text-anchor="middle" x="595.5" y="-128.2" font-family="Helvetica,sans-Serif" font-size="11.00">annotate_TE_regions( )</text>
<text text-anchor="middle" x="595.5" y="-116.2" font-family="Helvetica,sans-Serif" font-size="11.00">genomic context</text>
</g>
<!-- GENEGTF&#45;&gt;ANN -->
<g id="edge5" class="edge">
<title>GENEGTF&#45;&gt;ANN</title>
<path fill="none" stroke="#555555" d="M595.5,-213.76C595.5,-196.02 595.5,-178.27 595.5,-160.53"/>
<polygon fill="#555555" stroke="#555555" points="599,-160.08 595.5,-150.08 592,-160.08 599,-160.08"/>
</g>
<!-- DEA&#45;&gt;ANN -->
<g id="edge2" class="edge">
<title>DEA&#45;&gt;ANN</title>
<path fill="none" stroke="#555555" d="M397.23,-125C430.49,-125 469.37,-125 503.77,-125"/>
<polygon fill="#555555" stroke="#555555" points="503.81,-128.5 513.81,-125 503.81,-121.5 503.81,-128.5"/>
<text text-anchor="middle" x="455.5" y="-128" font-family="Helvetica,sans-Serif" font-size="10.00">TE_results</text>
</g>
<!-- O1 -->
<g id="node6" class="node">
<title>O1</title>
<path fill="#eafaef" stroke="#3fae6b" d="M391.5,-32.73C391.5,-34.53 358.11,-36 317,-36 275.89,-36 242.5,-34.53 242.5,-32.73 242.5,-32.73 242.5,-3.27 242.5,-3.27 242.5,-1.47 275.89,0 317,0 358.11,0 391.5,-1.47 391.5,-3.27 391.5,-3.27 391.5,-32.73 391.5,-32.73"/>
<path fill="none" stroke="#3fae6b" d="M391.5,-32.73C391.5,-30.92 358.11,-29.45 317,-29.45 275.89,-29.45 242.5,-30.92 242.5,-32.73"/>
<text text-anchor="middle" x="317" y="-15.2" font-family="Helvetica,sans-Serif" font-size="11.00">genes_DEA/ + TEs_DEA/</text>
</g>
<!-- DEA&#45;&gt;O1 -->
<g id="edge6" class="edge">
<title>DEA&#45;&gt;O1</title>
<path fill="none" stroke="#555555" d="M317,-99.73C317,-82.08 317,-64.43 317,-46.78"/>
<polygon fill="#555555" stroke="#555555" points="320.5,-46.39 317,-36.39 313.5,-46.39 320.5,-46.39"/>
</g>
<!-- CLS -->
<g id="node5" class="node">
<title>CLS</title>
<path fill="#e2f5e9" stroke="#3fae6b" stroke-width="2" d="M966,-150C966,-150 806,-150 806,-150 800,-150 794,-144 794,-138 794,-138 794,-112 794,-112 794,-106 800,-100 806,-100 806,-100 966,-100 966,-100 972,-100 978,-106 978,-112 978,-112 978,-138 978,-138 978,-144 972,-150 966,-150"/>
<text text-anchor="middle" x="886" y="-128.2" font-family="Helvetica,sans-Serif" font-size="11.00">classify_TE_transcription( )</text>
<text text-anchor="middle" x="886" y="-116.2" font-family="Helvetica,sans-Serif" font-size="11.00">transcriptional origin</text>
</g>
<!-- ANN&#45;&gt;CLS -->
<g id="edge3" class="edge">
<title>ANN&#45;&gt;CLS</title>
<path fill="none" stroke="#555555" d="M677.25,-125C710.25,-125 748.78,-125 783.65,-125"/>
<polygon fill="#555555" stroke="#555555" points="783.85,-128.5 793.85,-125 783.85,-121.5 783.85,-128.5"/>
<text text-anchor="middle" x="735.5" y="-128" font-family="Helvetica,sans-Serif" font-size="10.00">TE_results</text>
</g>
<!-- O2 -->
<g id="node7" class="node">
<title>O2</title>
<path fill="#eafaef" stroke="#3fae6b" d="M646,-32.73C646,-34.53 623.37,-36 595.5,-36 567.63,-36 545,-34.53 545,-32.73 545,-32.73 545,-3.27 545,-3.27 545,-1.47 567.63,0 595.5,0 623.37,0 646,-1.47 646,-3.27 646,-3.27 646,-32.73 646,-32.73"/>
<path fill="none" stroke="#3fae6b" d="M646,-32.73C646,-30.92 623.37,-29.45 595.5,-29.45 567.63,-29.45 545,-30.92 545,-32.73"/>
<text text-anchor="middle" x="595.5" y="-15.2" font-family="Helvetica,sans-Serif" font-size="11.00">TEs_annotated/</text>
</g>
<!-- ANN&#45;&gt;O2 -->
<g id="edge7" class="edge">
<title>ANN&#45;&gt;O2</title>
<path fill="none" stroke="#555555" d="M595.5,-99.73C595.5,-82.08 595.5,-64.43 595.5,-46.78"/>
<polygon fill="#555555" stroke="#555555" points="599,-46.39 595.5,-36.39 592,-46.39 599,-46.39"/>
</g>
<!-- O3 -->
<g id="node8" class="node">
<title>O3</title>
<path fill="#eafaef" stroke="#3fae6b" d="M926,-32.73C926,-34.53 908.07,-36 886,-36 863.93,-36 846,-34.53 846,-32.73 846,-32.73 846,-3.27 846,-3.27 846,-1.47 863.93,0 886,0 908.07,0 926,-1.47 926,-3.27 926,-3.27 926,-32.73 926,-32.73"/>
<path fill="none" stroke="#3fae6b" d="M926,-32.73C926,-30.92 908.07,-29.45 886,-29.45 863.93,-29.45 846,-30.92 846,-32.73"/>
<text text-anchor="middle" x="886" y="-15.2" font-family="Helvetica,sans-Serif" font-size="11.00">classify_TE/</text>
</g>
<!-- CLS&#45;&gt;O3 -->
<g id="edge8" class="edge">
<title>CLS&#45;&gt;O3</title>
<path fill="none" stroke="#555555" d="M886,-99.73C886,-82.08 886,-64.43 886,-46.78"/>
<polygon fill="#555555" stroke="#555555" points="889.5,-46.39 886,-36.39 882.5,-46.39 889.5,-46.39"/>
</g>
<!-- R3 -->
<g id="node9" class="node">
<title>R3</title>
<polygon fill="#fff7e6" stroke="#d9a441" points="1175,-143 1095,-143 1095,-107 1181,-107 1181,-137 1175,-143"/>
<polyline fill="none" stroke="#d9a441" points="1175,-143 1175,-137 "/>
<polyline fill="none" stroke="#d9a441" points="1181,-137 1175,-137 "/>
<text text-anchor="middle" x="1138" y="-128.2" font-family="Helvetica,sans-Serif" font-size="11.00">TE_results</text>
<text text-anchor="middle" x="1138" y="-116.2" font-family="Helvetica,sans-Serif" font-size="11.00">(final object)</text>
</g>
<!-- CLS&#45;&gt;R3 -->
<g id="edge4" class="edge">
<title>CLS&#45;&gt;R3</title>
<path fill="none" stroke="#555555" d="M978.32,-125C1014.16,-125 1053.99,-125 1084.78,-125"/>
<polygon fill="#555555" stroke="#555555" points="1084.86,-128.5 1094.86,-125 1084.86,-121.5 1084.86,-128.5"/>
<text text-anchor="middle" x="1036.5" y="-128" font-family="Helvetica,sans-Serif" font-size="10.00">TE_results</text>
</g>
</g>
</svg>
